<svg width="496" height="359" viewBox="0 0 496 359" fill="none" xmlns="http://www.w3.org/2000/svg">
<path fill-rule="evenodd" clip-rule="evenodd" d="M267.454 3.24496C271.029 4.63296 283.629 11.412 295.454 18.311L316.954 30.855L320.454 27.032C342.116 3.37496 377.777 -4.49604 408.454 7.60796C426.584 14.761 443.111 30.67 451.041 48.6C458.251 64.903 459.94 84.35 455.583 100.877C454.368 105.484 453.505 109.358 453.664 109.486C453.824 109.614 458.454 112.339 463.954 115.542C479.647 124.682 488.084 134.489 493.598 150C495.748 156.048 495.91 158.066 495.931 179C495.953 200.212 495.814 201.929 493.501 209C490.35 218.637 482.529 230.174 475.428 235.661C470.555 239.426 285.523 346.877 272.883 353.283C260.156 359.732 242.689 360.753 229.454 355.822C224.024 353.799 46.2533 252.024 26.7103 239.75C14.9113 232.339 5.64126 219.494 1.99726 205.505C-0.16774 197.193 -0.182736 161.913 1.97626 153.46C6.12126 137.222 16.4683 124.588 33.4543 115.021C38.6793 112.079 43.0483 109.613 43.1643 109.543C43.2793 109.472 42.4473 106.508 41.3153 102.957C38.3483 93.65 37.6953 76.851 39.8813 66.066C45.3573 39.036 63.9322 16.887 89.3102 7.12296C99.2522 3.29696 106.636 1.99797 118.388 2.00697C139.277 2.02197 159.768 10.482 173.916 24.932C176.646 27.719 179.297 30 179.808 30C180.32 30 190.17 24.558 201.697 17.907C231.261 0.84796 234.14 -0.18704 250.454 0.36596C258.697 0.64596 262.351 1.26496 267.454 3.24496ZM203.676 39.669C219.357 30.592 234.159 22.475 236.57 21.631C242.526 19.545 253.75 19.64 259.954 21.829C262.704 22.8 277.926 31.11 293.78 40.297C309.634 49.484 322.909 56.987 323.28 56.97C323.651 56.954 325.498 54.244 327.385 50.949C333.893 39.587 346.243 29.383 358.854 24.951C370.049 21.016 385.63 20.674 396.449 24.125C403.035 26.225 413.153 32.088 418.65 36.987C433.613 50.323 440.941 71.934 437.111 91.427C435.417 100.048 432.419 107.771 428.473 113.676L426.351 116.852L433.653 121.071C437.668 123.392 445.666 128.025 451.425 131.367C464.076 138.707 468.655 143.094 472.803 151.849L475.954 158.5V179.5V200.5L472.869 207.009C471.172 210.59 467.782 215.467 465.335 217.848C459.787 223.247 264.653 336.209 257.966 337.893C251.611 339.493 242.717 339.198 236.924 337.196C229.983 334.795 37.2213 223.408 31.8573 218.697C29.2673 216.423 26.2072 212.212 24.2412 208.218L20.9543 201.542V179.5V157.458L24.2043 150.856C28.6083 141.911 33.1673 138.044 52.2253 127.093C61.1733 121.95 68.7153 117.387 68.9843 116.952C69.2523 116.518 68.1433 113.988 66.5183 111.331C61.7093 103.465 59.2333 94.641 58.7103 83.5C57.8643 65.468 62.9313 52.476 75.9113 39.394C88.1143 27.095 100.967 21.685 117.914 21.714C133.685 21.74 148.26 27.778 159.556 38.963C163.186 42.558 167.632 48.114 169.434 51.308C171.325 54.661 173.229 56.916 173.938 56.644C174.614 56.385 187.996 48.746 203.676 39.669Z" fill="white"/>
<path fill-rule="evenodd" clip-rule="evenodd" d="M134.695 44.73C151.039 52.383 160.774 70.421 157.645 87.25C151.659 119.437 114.025 132.451 90.5193 110.464C68.2513 89.635 75.8572 53.528 104.741 42.943C108.731 41.48 112.066 41.096 118.954 41.303C126.627 41.534 128.948 42.039 134.695 44.73ZM104.644 96.43C93.7753 87.128 95.7693 69.653 108.429 63.25C121.055 56.864 135.914 64.551 138.015 78.555C140.727 96.645 118.687 108.451 104.644 96.43Z" fill="white"/>
<path fill-rule="evenodd" clip-rule="evenodd" d="M394.707 44.243C402.714 47.93 410.795 55.871 414.737 63.926C417.739 70.061 417.954 71.202 417.954 81.021C417.954 90.901 417.753 91.95 414.657 98.239C402.276 123.388 369.457 129.126 349.893 109.561C332.319 91.988 334.782 62.348 354.973 48.443C363.458 42.599 369.393 40.895 379.954 41.273C387.117 41.529 390.128 42.136 394.707 44.243ZM364.174 66.786C366.253 64.762 369.079 62.661 370.454 62.117C371.829 61.572 375.334 61.098 378.244 61.063C389.652 60.927 398.454 69.559 398.454 80.885C398.454 87.108 397.444 89.803 393.373 94.44C388.962 99.463 385.148 101.203 378.41 101.266C360.196 101.438 351.131 79.48 364.174 66.786Z" fill="white"/>
<rect x="38.1211" y="164.907" width="424.666" height="130.43" fill="#BA3021"/>
<path d="M84.3741 276.907C83.4941 276.747 82.6141 276.587 81.7341 276.427C80.8541 276.347 79.9741 276.187 79.0941 275.947C75.8941 275.307 72.8141 274.147 69.8541 272.467C66.9741 270.787 64.8141 268.387 63.3741 265.267C62.0941 262.707 61.2141 259.947 60.7341 256.987C60.3341 254.027 60.2541 251.147 60.4941 248.347C60.6541 245.547 61.2141 242.707 62.1741 239.827C63.2141 236.947 64.7341 234.507 66.7341 232.507C66.8941 232.347 67.2141 232.067 67.6941 231.667C68.1741 231.187 68.6941 230.707 69.2541 230.227C69.8141 229.747 70.3341 229.347 70.8141 229.027C71.2941 228.627 71.5741 228.467 71.6541 228.547C70.0541 226.547 68.7741 224.347 67.8141 221.947C66.9341 219.547 66.3741 217.107 66.1341 214.627C65.8941 212.067 65.8941 209.547 66.1341 207.067C66.4541 204.507 67.0141 202.107 67.8141 199.867C69.0941 196.107 71.0941 193.107 73.8141 190.867C76.5341 188.627 79.6141 187.107 83.0541 186.307C86.4941 185.427 90.0541 185.227 93.7341 185.707C97.4141 186.107 100.814 187.147 103.934 188.827C107.534 190.587 110.134 193.227 111.734 196.747C113.414 200.187 114.414 203.827 114.734 207.667C114.894 209.667 114.934 211.707 114.854 213.787C114.854 215.867 114.614 217.907 114.134 219.907C113.654 221.907 112.894 223.787 111.854 225.547C110.814 227.307 109.374 228.827 107.534 230.107C108.254 230.747 108.974 231.507 109.694 232.387C110.494 233.187 111.094 233.907 111.494 234.547C112.374 235.667 113.214 237.147 114.014 238.987L116.654 244.627C116.574 244.467 116.654 244.187 116.894 243.787C117.214 243.307 117.574 242.827 117.974 242.347C118.374 241.867 118.734 241.427 119.054 241.027C119.454 240.547 119.694 240.267 119.774 240.187C120.414 239.307 121.174 238.387 122.054 237.427C122.934 236.467 123.854 235.627 124.814 234.907C125.854 234.107 126.934 233.547 128.054 233.227C129.174 232.907 130.334 232.907 131.534 233.227C132.654 233.547 133.374 234.107 133.694 234.907C134.094 235.627 134.214 236.507 134.054 237.547C133.894 238.507 133.534 239.547 132.974 240.667C132.494 241.707 131.934 242.747 131.294 243.787C130.734 244.747 130.174 245.627 129.614 246.427C129.054 247.227 128.614 247.827 128.294 248.227C127.574 249.347 126.854 250.427 126.134 251.467C125.494 252.427 124.814 253.427 124.094 254.467C124.014 254.627 123.654 255.067 123.014 255.787C122.454 256.427 122.214 256.827 122.294 256.987C122.774 257.947 123.534 259.427 124.574 261.427C125.694 263.347 126.574 265.347 127.214 267.427C127.854 269.507 128.054 271.467 127.814 273.307C127.574 275.067 126.414 276.227 124.334 276.787C122.814 277.187 121.254 276.987 119.654 276.187C118.134 275.387 116.894 274.427 115.934 273.307C115.774 273.147 115.454 272.747 114.974 272.107C114.574 271.467 114.134 270.787 113.654 270.067C113.254 269.267 112.894 268.507 112.574 267.787C112.334 267.067 112.294 266.547 112.454 266.227C110.934 268.067 109.334 269.747 107.654 271.267C106.054 272.707 104.174 273.867 102.014 274.747C99.2141 275.867 96.3341 276.547 93.3741 276.787C90.4141 277.107 87.4141 277.147 84.3741 276.907ZM92.8941 264.067C94.0941 263.907 95.3741 263.587 96.7341 263.107C98.0941 262.547 99.4141 261.867 100.694 261.067C101.974 260.267 103.094 259.387 104.054 258.427C105.094 257.387 105.854 256.267 106.334 255.067C106.494 254.507 106.454 253.867 106.214 253.147C105.974 252.347 105.654 251.547 105.254 250.747C104.854 249.947 104.454 249.187 104.054 248.467C103.654 247.747 103.334 247.147 103.094 246.667C102.454 245.147 101.614 243.627 100.574 242.107C99.6141 240.587 98.4541 239.427 97.0941 238.627C94.1341 236.867 91.0141 236.187 87.7341 236.587C84.6141 236.907 81.8541 238.107 79.4541 240.187C77.1341 242.267 75.8541 245.027 75.6141 248.467C75.4541 250.307 75.4941 252.267 75.7341 254.347C75.9741 256.347 76.6141 258.067 77.6541 259.507C79.1741 261.427 81.4141 262.787 84.3741 263.587C87.3341 264.307 90.1741 264.467 92.8941 264.067ZM92.6541 223.027C95.2941 222.867 97.2141 221.947 98.4141 220.267C99.6141 218.587 100.334 216.627 100.574 214.387C100.814 213.187 100.974 212.027 101.054 210.907C101.134 209.707 101.094 208.547 100.934 207.427C100.774 206.307 100.414 205.267 99.8541 204.307C99.2941 203.267 98.4141 202.347 97.2141 201.547C95.5341 200.347 93.5741 199.667 91.3341 199.507C89.0941 199.347 87.0541 199.867 85.2141 201.067C83.6941 201.947 82.5741 203.027 81.8541 204.307C81.1341 205.507 80.6941 206.907 80.5341 208.507C80.2941 210.427 80.3341 212.347 80.6541 214.267C81.0541 216.107 81.7341 217.747 82.6941 219.187C83.6541 220.547 84.9341 221.627 86.5341 222.427C88.2141 223.147 90.2541 223.347 92.6541 223.027ZM189.089 276.787C188.369 277.827 187.369 278.587 186.089 279.067C184.809 279.547 183.489 279.707 182.129 279.547C180.849 279.387 179.649 278.907 178.529 278.107C177.489 277.387 176.809 276.347 176.489 274.987C176.409 274.827 176.329 274.387 176.249 273.667C176.249 272.947 176.209 272.227 176.129 271.507C176.129 270.707 176.089 269.987 176.009 269.347C176.009 268.707 176.009 268.387 176.009 268.387C174.169 268.147 172.009 267.827 169.529 267.427C167.129 266.947 165.009 266.387 163.169 265.747C161.969 265.267 160.689 264.787 159.329 264.307C158.049 263.747 156.809 263.147 155.609 262.507C154.409 261.787 153.289 260.987 152.249 260.107C151.289 259.147 150.569 258.027 150.089 256.747C149.689 255.787 149.409 254.787 149.249 253.747C149.169 252.627 149.249 251.547 149.489 250.507C149.809 249.467 150.289 248.547 150.929 247.747C151.649 246.947 152.609 246.427 153.809 246.187C154.609 245.947 155.409 245.987 156.209 246.307C157.009 246.547 157.769 246.907 158.489 247.387C159.209 247.867 159.929 248.427 160.649 249.067C161.369 249.627 162.089 250.067 162.809 250.387C164.649 251.107 166.769 251.787 169.169 252.427C171.649 252.987 173.929 253.427 176.009 253.747V232.867C174.569 232.387 172.929 231.947 171.089 231.547C169.329 231.147 167.889 230.787 166.769 230.467C165.729 230.067 164.769 229.747 163.889 229.507C163.089 229.187 162.369 228.827 161.729 228.427C158.209 227.067 155.649 224.947 154.049 222.067C153.249 220.627 152.649 219.187 152.249 217.747C151.849 216.227 151.649 214.547 151.649 212.707C151.649 211.107 151.809 209.627 152.129 208.267C152.449 206.827 152.849 205.507 153.329 204.307C154.289 201.907 155.849 199.827 158.009 198.067C158.969 197.107 160.049 196.307 161.249 195.667C162.529 195.027 163.889 194.387 165.329 193.747C166.689 193.107 168.409 192.627 170.489 192.307C172.569 191.987 174.409 191.747 176.009 191.587C176.009 190.467 176.009 189.307 176.009 188.107C176.009 186.827 176.329 185.747 176.969 184.867C177.929 183.507 178.809 182.547 179.609 181.987C180.409 181.427 181.609 181.227 183.209 181.387C184.649 181.547 185.929 181.907 187.049 182.467C188.169 183.027 189.009 184.027 189.569 185.467C189.569 185.627 189.569 186.067 189.569 186.787C189.649 187.427 189.729 188.147 189.809 188.947C189.889 189.827 189.929 190.827 189.929 191.947C192.489 192.507 195.129 193.227 197.849 194.107C200.649 194.907 203.169 195.947 205.409 197.227C207.169 198.347 208.569 199.627 209.609 201.067C210.729 202.427 211.249 204.147 211.169 206.227C211.089 207.347 210.649 208.427 209.849 209.467C209.049 210.507 208.089 211.107 206.969 211.267C205.689 211.427 204.489 211.227 203.369 210.667C202.249 210.027 201.169 209.427 200.129 208.867C198.769 208.227 197.169 207.587 195.329 206.947C193.569 206.227 191.769 205.787 189.929 205.627V222.187C191.609 222.667 193.369 223.307 195.209 224.107C197.049 224.827 198.649 225.467 200.009 226.027C204.489 227.867 207.769 230.787 209.849 234.787C212.009 238.707 213.009 242.947 212.849 247.507C212.769 250.547 212.169 253.347 211.049 255.907C210.409 257.027 209.689 258.067 208.889 259.027C208.089 259.987 207.209 260.867 206.249 261.667C205.289 262.547 204.249 263.307 203.129 263.947C202.009 264.507 200.769 265.107 199.409 265.747C198.049 266.147 196.529 266.547 194.849 266.947C193.169 267.267 191.529 267.587 189.929 267.907C189.849 267.907 189.769 268.187 189.689 268.747C189.689 269.227 189.689 269.787 189.689 270.427C189.769 271.067 189.809 271.707 189.809 272.347C189.889 272.907 189.929 273.227 189.929 273.307C189.929 274.667 189.649 275.827 189.089 276.787ZM167.489 213.307C167.569 213.947 167.849 214.667 168.329 215.467C168.809 216.187 169.369 216.787 170.009 217.267C170.729 217.747 171.609 218.147 172.649 218.467C173.689 218.707 174.809 218.907 176.009 219.067V205.507C173.369 205.667 171.169 206.347 169.409 207.547C167.729 208.667 167.089 210.587 167.489 213.307ZM199.529 245.467C199.369 244.427 198.969 243.467 198.329 242.587C197.769 241.627 197.009 240.787 196.049 240.067C195.169 239.347 194.169 238.747 193.049 238.267C192.009 237.707 190.969 237.307 189.929 237.067C189.929 239.867 189.969 242.707 190.049 245.587C190.209 248.387 190.249 251.187 190.169 253.987C191.369 254.147 192.569 254.067 193.769 253.747C194.969 253.347 196.009 252.787 196.889 252.067C197.769 251.267 198.449 250.307 198.929 249.187C199.489 248.067 199.689 246.827 199.529 245.467ZM229.646 185.467C230.286 184.427 231.166 183.667 232.286 183.187C233.406 182.707 234.486 182.467 235.526 182.467C236.406 182.467 237.246 182.507 238.046 182.587C238.926 182.587 239.766 182.667 240.566 182.827C242.246 183.307 243.446 184.387 244.166 186.067C244.886 187.667 245.326 189.547 245.486 191.707C245.726 193.787 245.766 195.867 245.606 197.947C245.526 200.027 245.486 201.707 245.486 202.987V238.387C245.486 239.987 245.486 241.587 245.486 243.187C245.486 244.787 245.206 246.307 244.646 247.747C244.086 249.107 243.046 250.107 241.526 250.747C240.006 251.387 238.406 251.707 236.726 251.707C235.046 251.627 233.446 251.267 231.926 250.627C230.406 249.907 229.366 248.907 228.806 247.627C228.566 246.907 228.366 246.027 228.206 244.987C228.126 243.867 228.046 242.867 227.966 241.987C227.886 240.627 227.846 239.227 227.846 237.787C227.926 236.267 227.966 234.747 227.966 233.227V193.027C227.966 192.067 228.086 190.827 228.326 189.307C228.566 187.787 229.006 186.507 229.646 185.467ZM243.446 262.627C243.686 263.027 243.886 263.427 244.046 263.827C244.286 264.147 244.486 264.547 244.646 265.027C244.886 265.907 245.046 266.827 245.126 267.787C245.206 268.747 245.126 269.707 244.886 270.667C244.646 271.547 244.246 272.387 243.686 273.187C243.126 273.987 242.366 274.587 241.406 274.987C240.526 275.387 239.486 275.627 238.286 275.707C237.086 275.787 235.926 275.707 234.806 275.467C233.686 275.227 232.646 274.787 231.686 274.147C230.726 273.507 230.046 272.667 229.646 271.627C229.246 270.507 229.006 269.227 228.926 267.787C228.926 266.267 229.126 264.947 229.526 263.827C230.006 262.627 230.766 261.827 231.806 261.427C232.846 260.947 233.966 260.707 235.166 260.707C236.686 260.627 238.166 260.667 239.606 260.827C241.126 260.987 242.406 261.587 243.446 262.627ZM332.957 190.987C333.437 192.027 333.437 193.507 332.957 195.427C332.557 197.507 332.117 199.627 331.637 201.787C331.237 203.947 330.837 206.067 330.437 208.147C331.157 208.147 332.037 208.187 333.077 208.267C334.117 208.267 335.157 208.387 336.197 208.627C337.317 208.787 338.317 209.027 339.197 209.347C340.157 209.667 340.837 210.067 341.237 210.547C341.557 211.027 341.797 211.707 341.957 212.587C342.197 213.467 342.237 214.387 342.077 215.347C341.917 216.227 341.557 217.067 340.997 217.867C340.437 218.587 339.597 219.027 338.477 219.187C338.157 219.347 337.037 219.467 335.117 219.547C333.277 219.627 330.837 219.667 327.797 219.667L324.197 240.187C325.157 240.187 326.317 240.147 327.677 240.067C329.117 239.987 330.757 240.027 332.597 240.187C334.277 240.267 335.477 240.827 336.197 241.867C336.997 242.907 337.357 244.227 337.277 245.827C337.277 247.507 336.677 248.747 335.477 249.547C334.277 250.347 332.837 250.907 331.157 251.227C329.477 251.467 327.677 251.587 325.757 251.587C323.917 251.587 322.317 251.587 320.957 251.587C320.797 251.587 320.597 252.187 320.357 253.387C320.117 254.507 319.837 255.787 319.517 257.227C319.277 258.587 319.037 259.907 318.797 261.187C318.557 262.467 318.397 263.227 318.317 263.467C317.997 264.827 317.717 266.187 317.477 267.547C317.237 268.827 316.837 270.027 316.277 271.147C315.717 272.267 314.957 273.227 313.997 274.027C313.117 274.827 311.877 275.347 310.277 275.587C308.997 275.747 307.797 275.627 306.677 275.227C305.637 274.827 304.717 274.227 303.917 273.427C303.117 272.627 302.517 271.667 302.117 270.547C301.797 269.427 301.717 268.267 301.877 267.067C302.037 265.867 302.237 264.707 302.477 263.587C302.797 262.387 303.117 261.227 303.437 260.107C303.757 258.747 304.077 257.347 304.397 255.907C304.717 254.387 304.997 252.947 305.237 251.587H290.957C290.477 253.587 289.997 255.587 289.517 257.587C289.117 259.587 288.677 261.627 288.197 263.707C287.797 265.467 287.237 267.267 286.517 269.107C285.877 270.867 284.757 272.267 283.157 273.307C281.717 274.347 280.077 274.987 278.237 275.227C276.477 275.467 274.877 274.867 273.437 273.427C272.477 272.467 271.917 271.347 271.757 270.067C271.597 268.787 271.637 267.467 271.877 266.107C272.117 264.747 272.437 263.427 272.837 262.147C273.317 260.787 273.677 259.547 273.917 258.427C274.157 257.307 274.397 256.187 274.637 255.067C274.957 253.867 275.237 252.707 275.477 251.587C274.437 251.587 273.197 251.587 271.757 251.587C270.397 251.587 269.077 251.427 267.797 251.107C266.517 250.787 265.437 250.267 264.557 249.547C263.677 248.747 263.237 247.627 263.237 246.187C263.237 244.667 263.557 243.307 264.197 242.107C264.917 240.827 266.157 240.147 267.917 240.067C269.517 240.067 271.237 240.107 273.077 240.187C274.917 240.187 276.637 240.187 278.237 240.187L283.037 219.667H276.317C275.437 219.667 274.517 219.627 273.557 219.547C272.677 219.387 271.837 219.147 271.037 218.827C270.317 218.427 269.717 217.907 269.237 217.267C268.837 216.547 268.637 215.667 268.637 214.627C268.637 213.347 268.917 212.307 269.477 211.507C270.117 210.627 270.917 209.947 271.877 209.467C272.837 208.987 273.877 208.667 274.997 208.507C276.117 208.267 277.197 208.147 278.237 208.147H285.797C286.117 206.627 286.437 204.907 286.757 202.987C287.157 201.067 287.637 199.187 288.197 197.347C288.837 195.427 289.557 193.627 290.357 191.947C291.237 190.267 292.357 188.867 293.717 187.747C295.237 186.467 296.717 185.747 298.157 185.587C299.597 185.347 300.837 185.547 301.877 186.187C302.917 186.827 303.637 187.867 304.037 189.307C304.517 190.747 304.517 192.467 304.037 194.467C303.477 196.707 302.917 198.987 302.357 201.307C301.877 203.627 301.397 205.907 300.917 208.147H314.957C314.957 208.147 315.037 207.707 315.197 206.827C315.437 205.867 315.677 204.827 315.917 203.707C316.157 202.587 316.397 201.547 316.637 200.587C316.877 199.627 316.997 199.067 316.997 198.907C317.477 197.067 318.237 194.987 319.277 192.667C320.397 190.267 321.797 188.507 323.477 187.387C324.277 186.907 325.157 186.627 326.117 186.547C327.077 186.467 327.997 186.587 328.877 186.907C329.837 187.147 330.677 187.627 331.397 188.347C332.117 189.067 332.637 189.947 332.957 190.987ZM293.477 240.187H307.997L312.557 219.667H298.157L293.477 240.187ZM430.624 276.667C427.984 277.307 425.424 277.667 422.944 277.747C420.464 277.827 417.944 277.307 415.384 276.187C413.464 275.387 411.704 273.947 410.104 271.867C408.504 269.707 407.384 267.627 406.744 265.627C406.024 263.067 405.744 260.507 405.904 257.947C406.064 255.387 406.384 252.787 406.864 250.147C407.424 247.827 408.544 245.627 410.224 243.547C411.984 241.387 414.024 239.947 416.344 239.227C418.184 238.587 420.064 238.227 421.984 238.147C423.904 237.987 425.784 238.027 427.624 238.267C429.384 238.347 431.064 238.667 432.664 239.227C434.264 239.707 435.744 240.507 437.104 241.627C437.744 242.187 438.344 242.947 438.904 243.907C439.464 244.787 439.944 245.747 440.344 246.787C440.744 247.747 441.064 248.747 441.304 249.787C441.624 250.827 441.824 251.787 441.904 252.667C442.304 255.707 442.384 258.507 442.144 261.067C441.984 263.627 441.384 266.307 440.344 269.107C439.544 271.427 438.264 273.107 436.504 274.147C434.744 275.267 432.784 276.107 430.624 276.667ZM429.304 193.027C429.464 194.707 429.144 196.347 428.344 197.947C427.544 199.547 426.704 201.027 425.824 202.387C424.704 204.467 423.584 206.547 422.464 208.627C421.344 210.707 420.224 212.787 419.104 214.867C416.064 220.307 413.024 225.707 409.984 231.067C407.024 236.427 404.024 241.867 400.984 247.387C399.704 249.707 398.424 252.067 397.144 254.467C395.944 256.787 394.664 259.147 393.304 261.547C392.584 262.747 391.784 264.107 390.904 265.627C390.104 267.147 389.144 268.547 388.024 269.827C386.984 271.107 385.784 272.107 384.424 272.827C383.064 273.547 381.504 273.787 379.744 273.547C378.624 273.387 377.704 272.867 376.984 271.987C376.264 271.107 375.864 270.107 375.784 268.987C375.784 267.147 376.224 265.387 377.104 263.707C377.984 262.027 378.864 260.387 379.744 258.787C380.864 256.627 382.024 254.507 383.224 252.427C384.504 250.267 385.744 248.147 386.944 246.067C389.984 240.547 393.024 235.067 396.064 229.627C399.104 224.187 402.144 218.707 405.184 213.187C406.304 210.947 407.504 208.707 408.784 206.467C410.064 204.227 411.304 202.027 412.504 199.867C413.144 198.747 413.824 197.587 414.544 196.387C415.264 195.187 416.064 194.067 416.944 193.027C417.824 191.907 418.784 190.947 419.824 190.147C420.864 189.347 422.064 188.827 423.424 188.587C424.784 188.267 426.064 188.507 427.264 189.307C428.464 190.107 429.144 191.267 429.304 192.787V193.027ZM386.464 224.227C383.904 224.867 381.224 225.187 378.424 225.187C375.704 225.187 373.064 224.627 370.504 223.507C368.584 222.787 366.904 221.387 365.464 219.307C364.104 217.147 363.104 215.107 362.464 213.187C361.824 210.547 361.544 207.947 361.624 205.387C361.784 202.827 362.104 200.267 362.584 197.707C363.144 195.387 364.304 193.187 366.064 191.107C367.824 188.947 369.864 187.467 372.184 186.667C374.024 186.027 375.904 185.667 377.824 185.587C379.744 185.427 381.624 185.387 383.464 185.467C385.224 185.627 386.864 185.987 388.384 186.547C389.984 187.027 391.464 187.827 392.824 188.947C394.184 190.067 395.224 191.427 395.944 193.027C396.744 194.627 397.224 196.267 397.384 197.947C397.784 200.987 397.824 204.107 397.504 207.307C397.264 210.427 396.704 213.427 395.824 216.307C394.944 218.467 393.664 220.187 391.984 221.467C390.384 222.667 388.544 223.587 386.464 224.227ZM426.064 267.667C427.424 267.507 428.424 267.067 429.064 266.347C430.264 265.227 430.984 263.787 431.224 262.027C431.544 260.267 431.664 258.667 431.584 257.227C431.584 256.027 431.344 254.587 430.864 252.907C430.464 251.147 429.584 249.907 428.224 249.187C427.104 248.547 425.864 248.227 424.504 248.227C423.144 248.147 421.904 248.387 420.784 248.947C419.664 249.507 418.824 250.267 418.264 251.227C417.784 252.187 417.504 253.267 417.424 254.467C417.264 255.427 417.144 256.587 417.064 257.947C416.984 259.307 417.024 260.667 417.184 262.027C417.424 263.307 417.864 264.507 418.504 265.627C419.144 266.667 420.144 267.307 421.504 267.547C422.144 267.707 422.864 267.827 423.664 267.907C424.544 267.907 425.344 267.827 426.064 267.667ZM382.024 215.227C382.664 215.147 383.184 214.987 383.584 214.747C384.064 214.507 384.504 214.187 384.904 213.787C386.104 212.587 386.744 211.107 386.824 209.347C386.984 207.507 387.064 205.827 387.064 204.307C387.064 203.027 386.904 201.627 386.584 200.107C386.264 198.507 385.424 197.387 384.064 196.747C382.864 196.107 381.624 195.747 380.344 195.667C379.064 195.507 377.864 195.747 376.744 196.387C375.464 197.027 374.584 197.827 374.104 198.787C373.624 199.667 373.264 200.707 373.024 201.907C372.944 202.787 372.864 203.947 372.784 205.387C372.784 206.747 372.864 208.107 373.024 209.467C373.264 210.827 373.704 212.067 374.344 213.187C374.984 214.227 375.984 214.867 377.344 215.107C377.984 215.187 378.704 215.267 379.504 215.347C380.384 215.427 381.224 215.387 382.024 215.227Z" fill="white"/>
</svg>
