<svg width="496" height="359" viewBox="0 0 496 359" fill="none" xmlns="http://www.w3.org/2000/svg">
<path fill-rule="evenodd" clip-rule="evenodd" d="M267.26 3.24499C270.835 4.63299 283.435 11.412 295.26 18.311L316.76 30.855L320.26 27.032C341.922 3.37499 377.583 -4.49601 408.26 7.60799C426.39 14.761 442.917 30.67 450.847 48.6C458.057 64.903 459.746 84.35 455.389 100.877C454.174 105.484 453.311 109.358 453.47 109.486C453.63 109.614 458.26 112.339 463.76 115.542C479.453 124.682 487.89 134.489 493.404 150C495.554 156.048 495.716 158.066 495.737 179C495.759 200.212 495.62 201.929 493.307 209C490.156 218.637 482.335 230.174 475.234 235.661C470.361 239.426 285.329 346.877 272.689 353.283C259.962 359.732 242.495 360.753 229.26 355.822C223.83 353.799 46.0592 252.024 26.5162 239.75C14.7172 232.339 5.44717 219.494 1.80317 205.505C-0.361831 197.193 -0.376827 161.913 1.78217 153.46C5.92717 137.222 16.2742 124.588 33.2602 115.021C38.4852 112.079 42.8542 109.613 42.9702 109.543C43.0852 109.472 42.2532 106.508 41.1212 102.957C38.1542 93.65 37.5012 76.851 39.6872 66.066C45.1632 39.036 63.7382 16.887 89.1162 7.12299C99.0582 3.29699 106.442 1.998 118.194 2.007C139.083 2.022 159.574 10.482 173.722 24.932C176.452 27.719 179.103 30 179.614 30C180.126 30 189.976 24.558 201.503 17.907C231.067 0.84799 233.946 -0.18701 250.26 0.36599C258.503 0.64599 262.157 1.26499 267.26 3.24499ZM236.376 21.631C233.965 22.475 219.163 30.592 203.482 39.669C187.802 48.746 174.42 56.385 173.744 56.644C173.035 56.916 171.131 54.661 169.24 51.308C167.438 48.114 162.992 42.558 159.362 38.963C148.066 27.778 133.491 21.74 117.72 21.714C100.773 21.685 87.9202 27.095 75.7172 39.394C62.7372 52.476 57.6702 65.468 58.5162 83.5C59.0392 94.641 61.5152 103.465 66.3242 111.331C67.9492 113.988 69.0582 116.518 68.7902 116.952C68.5212 117.387 60.9792 121.95 52.0312 127.093C32.9732 138.044 28.4142 141.911 24.0102 150.856L20.7602 157.458V179.5V201.542L24.0472 208.218C26.0132 212.212 29.0732 216.423 31.6632 218.697C37.0272 223.408 229.789 334.795 236.73 337.196C242.523 339.198 251.417 339.493 257.772 337.893C264.459 336.209 459.593 223.247 465.141 217.848C467.588 215.467 470.978 210.59 472.675 207.009L475.76 200.5V179.5V158.5L472.609 151.849C468.461 143.094 463.882 138.707 451.231 131.367C445.472 128.025 437.474 123.392 433.459 121.071L426.157 116.852L428.279 113.676C432.225 107.771 435.223 100.048 436.917 91.427C440.747 71.934 433.419 50.323 418.456 36.987C412.959 32.088 402.841 26.225 396.255 24.125C385.436 20.674 369.855 21.016 358.66 24.951C346.049 29.383 333.699 39.587 327.191 50.949C325.304 54.244 323.457 56.954 323.086 56.97C322.715 56.987 309.44 49.484 293.586 40.297C277.732 31.11 262.51 22.8 259.76 21.829C253.556 19.64 242.332 19.545 236.376 21.631ZM134.501 44.73C150.845 52.383 160.58 70.421 157.451 87.25C151.465 119.437 113.831 132.451 90.3252 110.464C68.0572 89.635 75.6632 53.528 104.547 42.943C108.537 41.48 111.872 41.096 118.76 41.303C126.433 41.534 128.754 42.039 134.501 44.73ZM394.513 44.243C402.52 47.93 410.601 55.871 414.543 63.926C417.545 70.061 417.76 71.202 417.76 81.021C417.76 90.901 417.559 91.95 414.463 98.239C402.082 123.388 369.263 129.126 349.699 109.561C332.125 91.988 334.588 62.348 354.779 48.443C363.264 42.599 369.199 40.895 379.76 41.273C386.923 41.529 389.934 42.136 394.513 44.243ZM108.235 63.25C95.5752 69.653 93.5812 87.128 104.45 96.43C118.493 108.451 140.533 96.645 137.821 78.555C135.72 64.551 120.861 56.864 108.235 63.25ZM370.26 62.117C368.885 62.661 366.059 64.762 363.98 66.786C350.937 79.48 360.002 101.438 378.216 101.266C384.954 101.203 388.768 99.463 393.179 94.44C397.25 89.803 398.26 87.108 398.26 80.885C398.26 69.559 389.458 60.927 378.05 61.063C375.14 61.098 371.635 61.572 370.26 62.117ZM359.643 193.359C409.078 199.724 449.725 205.131 449.968 205.374C450.504 205.91 458.561 201.199 346.311 265.979C244.508 324.73 249.073 322.494 240.186 317.964C236.298 315.983 47.4132 207.213 46.3432 206.34C46.1142 206.153 46.1962 205.731 46.5252 205.402C46.8542 205.073 87.1002 199.709 135.961 193.482C184.822 187.256 226.365 181.946 228.279 181.684C230.194 181.421 240.31 181.337 250.76 181.496C268.203 181.762 277.125 182.734 359.643 193.359Z" fill="black"/>
<rect x="37.927" y="164.907" width="424.666" height="130.43" fill="#BA3021"/>
<path d="M84.1803 276.907C83.3003 276.747 82.4203 276.587 81.5403 276.427C80.6603 276.347 79.7803 276.187 78.9003 275.947C75.7003 275.307 72.6203 274.147 69.6603 272.467C66.7803 270.787 64.6203 268.387 63.1803 265.267C61.9003 262.707 61.0203 259.947 60.5403 256.987C60.1403 254.027 60.0603 251.147 60.3003 248.347C60.4603 245.547 61.0203 242.707 61.9803 239.827C63.0203 236.947 64.5403 234.507 66.5403 232.507C66.7003 232.347 67.0203 232.067 67.5003 231.667C67.9803 231.187 68.5003 230.707 69.0603 230.227C69.6203 229.747 70.1403 229.347 70.6203 229.027C71.1003 228.627 71.3803 228.467 71.4603 228.547C69.8603 226.547 68.5803 224.347 67.6203 221.947C66.7403 219.547 66.1803 217.107 65.9403 214.627C65.7003 212.067 65.7003 209.547 65.9403 207.067C66.2603 204.507 66.8203 202.107 67.6203 199.867C68.9003 196.107 70.9003 193.107 73.6203 190.867C76.3403 188.627 79.4203 187.107 82.8603 186.307C86.3003 185.427 89.8603 185.227 93.5403 185.707C97.2203 186.107 100.62 187.147 103.74 188.827C107.34 190.587 109.94 193.227 111.54 196.747C113.22 200.187 114.22 203.827 114.54 207.667C114.7 209.667 114.74 211.707 114.66 213.787C114.66 215.867 114.42 217.907 113.94 219.907C113.46 221.907 112.7 223.787 111.66 225.547C110.62 227.307 109.18 228.827 107.34 230.107C108.06 230.747 108.78 231.507 109.5 232.387C110.3 233.187 110.9 233.907 111.3 234.547C112.18 235.667 113.02 237.147 113.82 238.987L116.46 244.627C116.38 244.467 116.46 244.187 116.7 243.787C117.02 243.307 117.38 242.827 117.78 242.347C118.18 241.867 118.54 241.427 118.86 241.027C119.26 240.547 119.5 240.267 119.58 240.187C120.22 239.307 120.98 238.387 121.86 237.427C122.74 236.467 123.66 235.627 124.62 234.907C125.66 234.107 126.74 233.547 127.86 233.227C128.98 232.907 130.14 232.907 131.34 233.227C132.46 233.547 133.18 234.107 133.5 234.907C133.9 235.627 134.02 236.507 133.86 237.547C133.7 238.507 133.34 239.547 132.78 240.667C132.3 241.707 131.74 242.747 131.1 243.787C130.54 244.747 129.98 245.627 129.42 246.427C128.86 247.227 128.42 247.827 128.1 248.227C127.38 249.347 126.66 250.427 125.94 251.467C125.3 252.427 124.62 253.427 123.9 254.467C123.82 254.627 123.46 255.067 122.82 255.787C122.26 256.427 122.02 256.827 122.1 256.987C122.58 257.947 123.34 259.427 124.38 261.427C125.5 263.347 126.38 265.347 127.02 267.427C127.66 269.507 127.86 271.467 127.62 273.307C127.38 275.067 126.22 276.227 124.14 276.787C122.62 277.187 121.06 276.987 119.46 276.187C117.94 275.387 116.7 274.427 115.74 273.307C115.58 273.147 115.26 272.747 114.78 272.107C114.38 271.467 113.94 270.787 113.46 270.067C113.06 269.267 112.7 268.507 112.38 267.787C112.14 267.067 112.1 266.547 112.26 266.227C110.74 268.067 109.14 269.747 107.46 271.267C105.86 272.707 103.98 273.867 101.82 274.747C99.0203 275.867 96.1403 276.547 93.1803 276.787C90.2203 277.107 87.2203 277.147 84.1803 276.907ZM92.7003 264.067C93.9003 263.907 95.1803 263.587 96.5403 263.107C97.9003 262.547 99.2203 261.867 100.5 261.067C101.78 260.267 102.9 259.387 103.86 258.427C104.9 257.387 105.66 256.267 106.14 255.067C106.3 254.507 106.26 253.867 106.02 253.147C105.78 252.347 105.46 251.547 105.06 250.747C104.66 249.947 104.26 249.187 103.86 248.467C103.46 247.747 103.14 247.147 102.9 246.667C102.26 245.147 101.42 243.627 100.38 242.107C99.4203 240.587 98.2603 239.427 96.9003 238.627C93.9403 236.867 90.8203 236.187 87.5403 236.587C84.4203 236.907 81.6603 238.107 79.2603 240.187C76.9403 242.267 75.6603 245.027 75.4203 248.467C75.2603 250.307 75.3003 252.267 75.5403 254.347C75.7803 256.347 76.4203 258.067 77.4603 259.507C78.9803 261.427 81.2203 262.787 84.1803 263.587C87.1403 264.307 89.9803 264.467 92.7003 264.067ZM92.4603 223.027C95.1003 222.867 97.0203 221.947 98.2203 220.267C99.4203 218.587 100.14 216.627 100.38 214.387C100.62 213.187 100.78 212.027 100.86 210.907C100.94 209.707 100.9 208.547 100.74 207.427C100.58 206.307 100.22 205.267 99.6603 204.307C99.1003 203.267 98.2203 202.347 97.0203 201.547C95.3403 200.347 93.3803 199.667 91.1403 199.507C88.9003 199.347 86.8603 199.867 85.0203 201.067C83.5003 201.947 82.3803 203.027 81.6603 204.307C80.9403 205.507 80.5003 206.907 80.3403 208.507C80.1003 210.427 80.1403 212.347 80.4603 214.267C80.8603 216.107 81.5403 217.747 82.5003 219.187C83.4603 220.547 84.7403 221.627 86.3403 222.427C88.0203 223.147 90.0603 223.347 92.4603 223.027ZM188.895 276.787C188.175 277.827 187.175 278.587 185.895 279.067C184.615 279.547 183.295 279.707 181.935 279.547C180.655 279.387 179.455 278.907 178.335 278.107C177.295 277.387 176.615 276.347 176.295 274.987C176.215 274.827 176.135 274.387 176.055 273.667C176.055 272.947 176.015 272.227 175.935 271.507C175.935 270.707 175.895 269.987 175.815 269.347C175.815 268.707 175.815 268.387 175.815 268.387C173.975 268.147 171.815 267.827 169.335 267.427C166.935 266.947 164.815 266.387 162.975 265.747C161.775 265.267 160.495 264.787 159.135 264.307C157.855 263.747 156.615 263.147 155.415 262.507C154.215 261.787 153.095 260.987 152.055 260.107C151.095 259.147 150.375 258.027 149.895 256.747C149.495 255.787 149.215 254.787 149.055 253.747C148.975 252.627 149.055 251.547 149.295 250.507C149.615 249.467 150.095 248.547 150.735 247.747C151.455 246.947 152.415 246.427 153.615 246.187C154.415 245.947 155.215 245.987 156.015 246.307C156.815 246.547 157.575 246.907 158.295 247.387C159.015 247.867 159.735 248.427 160.455 249.067C161.175 249.627 161.895 250.067 162.615 250.387C164.455 251.107 166.575 251.787 168.975 252.427C171.455 252.987 173.735 253.427 175.815 253.747V232.867C174.375 232.387 172.735 231.947 170.895 231.547C169.135 231.147 167.695 230.787 166.575 230.467C165.535 230.067 164.575 229.747 163.695 229.507C162.895 229.187 162.175 228.827 161.535 228.427C158.015 227.067 155.455 224.947 153.855 222.067C153.055 220.627 152.455 219.187 152.055 217.747C151.655 216.227 151.455 214.547 151.455 212.707C151.455 211.107 151.615 209.627 151.935 208.267C152.255 206.827 152.655 205.507 153.135 204.307C154.095 201.907 155.655 199.827 157.815 198.067C158.775 197.107 159.855 196.307 161.055 195.667C162.335 195.027 163.695 194.387 165.135 193.747C166.495 193.107 168.215 192.627 170.295 192.307C172.375 191.987 174.215 191.747 175.815 191.587C175.815 190.467 175.815 189.307 175.815 188.107C175.815 186.827 176.135 185.747 176.775 184.867C177.735 183.507 178.615 182.547 179.415 181.987C180.215 181.427 181.415 181.227 183.015 181.387C184.455 181.547 185.735 181.907 186.855 182.467C187.975 183.027 188.815 184.027 189.375 185.467C189.375 185.627 189.375 186.067 189.375 186.787C189.455 187.427 189.535 188.147 189.615 188.947C189.695 189.827 189.735 190.827 189.735 191.947C192.295 192.507 194.935 193.227 197.655 194.107C200.455 194.907 202.975 195.947 205.215 197.227C206.975 198.347 208.375 199.627 209.415 201.067C210.535 202.427 211.055 204.147 210.975 206.227C210.895 207.347 210.455 208.427 209.655 209.467C208.855 210.507 207.895 211.107 206.775 211.267C205.495 211.427 204.295 211.227 203.175 210.667C202.055 210.027 200.975 209.427 199.935 208.867C198.575 208.227 196.975 207.587 195.135 206.947C193.375 206.227 191.575 205.787 189.735 205.627V222.187C191.415 222.667 193.175 223.307 195.015 224.107C196.855 224.827 198.455 225.467 199.815 226.027C204.295 227.867 207.575 230.787 209.655 234.787C211.815 238.707 212.815 242.947 212.655 247.507C212.575 250.547 211.975 253.347 210.855 255.907C210.215 257.027 209.495 258.067 208.695 259.027C207.895 259.987 207.015 260.867 206.055 261.667C205.095 262.547 204.055 263.307 202.935 263.947C201.815 264.507 200.575 265.107 199.215 265.747C197.855 266.147 196.335 266.547 194.655 266.947C192.975 267.267 191.335 267.587 189.735 267.907C189.655 267.907 189.575 268.187 189.495 268.747C189.495 269.227 189.495 269.787 189.495 270.427C189.575 271.067 189.615 271.707 189.615 272.347C189.695 272.907 189.735 273.227 189.735 273.307C189.735 274.667 189.455 275.827 188.895 276.787ZM167.295 213.307C167.375 213.947 167.655 214.667 168.135 215.467C168.615 216.187 169.175 216.787 169.815 217.267C170.535 217.747 171.415 218.147 172.455 218.467C173.495 218.707 174.615 218.907 175.815 219.067V205.507C173.175 205.667 170.975 206.347 169.215 207.547C167.535 208.667 166.895 210.587 167.295 213.307ZM199.335 245.467C199.175 244.427 198.775 243.467 198.135 242.587C197.575 241.627 196.815 240.787 195.855 240.067C194.975 239.347 193.975 238.747 192.855 238.267C191.815 237.707 190.775 237.307 189.735 237.067C189.735 239.867 189.775 242.707 189.855 245.587C190.015 248.387 190.055 251.187 189.975 253.987C191.175 254.147 192.375 254.067 193.575 253.747C194.775 253.347 195.815 252.787 196.695 252.067C197.575 251.267 198.255 250.307 198.735 249.187C199.295 248.067 199.495 246.827 199.335 245.467ZM229.452 185.467C230.092 184.427 230.972 183.667 232.092 183.187C233.212 182.707 234.292 182.467 235.332 182.467C236.212 182.467 237.052 182.507 237.852 182.587C238.732 182.587 239.572 182.667 240.372 182.827C242.052 183.307 243.252 184.387 243.972 186.067C244.692 187.667 245.132 189.547 245.292 191.707C245.532 193.787 245.572 195.867 245.412 197.947C245.332 200.027 245.292 201.707 245.292 202.987V238.387C245.292 239.987 245.292 241.587 245.292 243.187C245.292 244.787 245.012 246.307 244.452 247.747C243.892 249.107 242.852 250.107 241.332 250.747C239.812 251.387 238.212 251.707 236.532 251.707C234.852 251.627 233.252 251.267 231.732 250.627C230.212 249.907 229.172 248.907 228.612 247.627C228.372 246.907 228.172 246.027 228.012 244.987C227.932 243.867 227.852 242.867 227.772 241.987C227.692 240.627 227.652 239.227 227.652 237.787C227.732 236.267 227.772 234.747 227.772 233.227V193.027C227.772 192.067 227.892 190.827 228.132 189.307C228.372 187.787 228.812 186.507 229.452 185.467ZM243.252 262.627C243.492 263.027 243.692 263.427 243.852 263.827C244.092 264.147 244.292 264.547 244.452 265.027C244.692 265.907 244.852 266.827 244.932 267.787C245.012 268.747 244.932 269.707 244.692 270.667C244.452 271.547 244.052 272.387 243.492 273.187C242.932 273.987 242.172 274.587 241.212 274.987C240.332 275.387 239.292 275.627 238.092 275.707C236.892 275.787 235.732 275.707 234.612 275.467C233.492 275.227 232.452 274.787 231.492 274.147C230.532 273.507 229.852 272.667 229.452 271.627C229.052 270.507 228.812 269.227 228.732 267.787C228.732 266.267 228.932 264.947 229.332 263.827C229.812 262.627 230.572 261.827 231.612 261.427C232.652 260.947 233.772 260.707 234.972 260.707C236.492 260.627 237.972 260.667 239.412 260.827C240.932 260.987 242.212 261.587 243.252 262.627ZM332.763 190.987C333.243 192.027 333.243 193.507 332.763 195.427C332.363 197.507 331.923 199.627 331.443 201.787C331.043 203.947 330.643 206.067 330.243 208.147C330.963 208.147 331.843 208.187 332.883 208.267C333.923 208.267 334.963 208.387 336.003 208.627C337.123 208.787 338.123 209.027 339.003 209.347C339.963 209.667 340.643 210.067 341.043 210.547C341.363 211.027 341.603 211.707 341.763 212.587C342.003 213.467 342.043 214.387 341.883 215.347C341.723 216.227 341.363 217.067 340.803 217.867C340.243 218.587 339.403 219.027 338.283 219.187C337.963 219.347 336.843 219.467 334.923 219.547C333.083 219.627 330.643 219.667 327.603 219.667L324.003 240.187C324.963 240.187 326.123 240.147 327.483 240.067C328.923 239.987 330.563 240.027 332.403 240.187C334.083 240.267 335.283 240.827 336.003 241.867C336.803 242.907 337.163 244.227 337.083 245.827C337.083 247.507 336.483 248.747 335.283 249.547C334.083 250.347 332.643 250.907 330.963 251.227C329.283 251.467 327.483 251.587 325.563 251.587C323.723 251.587 322.123 251.587 320.763 251.587C320.603 251.587 320.403 252.187 320.163 253.387C319.923 254.507 319.643 255.787 319.323 257.227C319.083 258.587 318.843 259.907 318.603 261.187C318.363 262.467 318.203 263.227 318.123 263.467C317.803 264.827 317.523 266.187 317.283 267.547C317.043 268.827 316.643 270.027 316.083 271.147C315.523 272.267 314.763 273.227 313.803 274.027C312.923 274.827 311.683 275.347 310.083 275.587C308.803 275.747 307.603 275.627 306.483 275.227C305.443 274.827 304.523 274.227 303.723 273.427C302.923 272.627 302.323 271.667 301.923 270.547C301.603 269.427 301.523 268.267 301.683 267.067C301.843 265.867 302.043 264.707 302.283 263.587C302.603 262.387 302.923 261.227 303.243 260.107C303.563 258.747 303.883 257.347 304.203 255.907C304.523 254.387 304.803 252.947 305.043 251.587H290.763C290.283 253.587 289.803 255.587 289.323 257.587C288.923 259.587 288.483 261.627 288.003 263.707C287.603 265.467 287.043 267.267 286.323 269.107C285.683 270.867 284.563 272.267 282.963 273.307C281.523 274.347 279.883 274.987 278.043 275.227C276.283 275.467 274.683 274.867 273.243 273.427C272.283 272.467 271.723 271.347 271.563 270.067C271.403 268.787 271.443 267.467 271.683 266.107C271.923 264.747 272.243 263.427 272.643 262.147C273.123 260.787 273.483 259.547 273.723 258.427C273.963 257.307 274.203 256.187 274.443 255.067C274.763 253.867 275.043 252.707 275.283 251.587C274.243 251.587 273.003 251.587 271.563 251.587C270.203 251.587 268.883 251.427 267.603 251.107C266.323 250.787 265.243 250.267 264.363 249.547C263.483 248.747 263.043 247.627 263.043 246.187C263.043 244.667 263.363 243.307 264.003 242.107C264.723 240.827 265.963 240.147 267.723 240.067C269.323 240.067 271.043 240.107 272.883 240.187C274.723 240.187 276.443 240.187 278.043 240.187L282.843 219.667H276.123C275.243 219.667 274.323 219.627 273.363 219.547C272.483 219.387 271.643 219.147 270.843 218.827C270.123 218.427 269.523 217.907 269.043 217.267C268.643 216.547 268.443 215.667 268.443 214.627C268.443 213.347 268.723 212.307 269.283 211.507C269.923 210.627 270.723 209.947 271.683 209.467C272.643 208.987 273.683 208.667 274.803 208.507C275.923 208.267 277.003 208.147 278.043 208.147H285.603C285.923 206.627 286.243 204.907 286.563 202.987C286.963 201.067 287.443 199.187 288.003 197.347C288.643 195.427 289.363 193.627 290.163 191.947C291.043 190.267 292.163 188.867 293.523 187.747C295.043 186.467 296.523 185.747 297.963 185.587C299.403 185.347 300.643 185.547 301.683 186.187C302.723 186.827 303.443 187.867 303.843 189.307C304.323 190.747 304.323 192.467 303.843 194.467C303.283 196.707 302.723 198.987 302.163 201.307C301.683 203.627 301.203 205.907 300.723 208.147H314.763C314.763 208.147 314.843 207.707 315.003 206.827C315.243 205.867 315.483 204.827 315.723 203.707C315.963 202.587 316.203 201.547 316.443 200.587C316.683 199.627 316.803 199.067 316.803 198.907C317.283 197.067 318.043 194.987 319.083 192.667C320.203 190.267 321.603 188.507 323.283 187.387C324.083 186.907 324.963 186.627 325.923 186.547C326.883 186.467 327.803 186.587 328.683 186.907C329.643 187.147 330.483 187.627 331.203 188.347C331.923 189.067 332.443 189.947 332.763 190.987ZM293.283 240.187H307.803L312.363 219.667H297.963L293.283 240.187ZM430.43 276.667C427.79 277.307 425.23 277.667 422.75 277.747C420.27 277.827 417.75 277.307 415.19 276.187C413.27 275.387 411.51 273.947 409.91 271.867C408.31 269.707 407.19 267.627 406.55 265.627C405.83 263.067 405.55 260.507 405.71 257.947C405.87 255.387 406.19 252.787 406.67 250.147C407.23 247.827 408.35 245.627 410.03 243.547C411.79 241.387 413.83 239.947 416.15 239.227C417.99 238.587 419.87 238.227 421.79 238.147C423.71 237.987 425.59 238.027 427.43 238.267C429.19 238.347 430.87 238.667 432.47 239.227C434.07 239.707 435.55 240.507 436.91 241.627C437.55 242.187 438.15 242.947 438.71 243.907C439.27 244.787 439.75 245.747 440.15 246.787C440.55 247.747 440.87 248.747 441.11 249.787C441.43 250.827 441.63 251.787 441.71 252.667C442.11 255.707 442.19 258.507 441.95 261.067C441.79 263.627 441.19 266.307 440.15 269.107C439.35 271.427 438.07 273.107 436.31 274.147C434.55 275.267 432.59 276.107 430.43 276.667ZM429.11 193.027C429.27 194.707 428.95 196.347 428.15 197.947C427.35 199.547 426.51 201.027 425.63 202.387C424.51 204.467 423.39 206.547 422.27 208.627C421.15 210.707 420.03 212.787 418.91 214.867C415.87 220.307 412.83 225.707 409.79 231.067C406.83 236.427 403.83 241.867 400.79 247.387C399.51 249.707 398.23 252.067 396.95 254.467C395.75 256.787 394.47 259.147 393.11 261.547C392.39 262.747 391.59 264.107 390.71 265.627C389.91 267.147 388.95 268.547 387.83 269.827C386.79 271.107 385.59 272.107 384.23 272.827C382.87 273.547 381.31 273.787 379.55 273.547C378.43 273.387 377.51 272.867 376.79 271.987C376.07 271.107 375.67 270.107 375.59 268.987C375.59 267.147 376.03 265.387 376.91 263.707C377.79 262.027 378.67 260.387 379.55 258.787C380.67 256.627 381.83 254.507 383.03 252.427C384.31 250.267 385.55 248.147 386.75 246.067C389.79 240.547 392.83 235.067 395.87 229.627C398.91 224.187 401.95 218.707 404.99 213.187C406.11 210.947 407.31 208.707 408.59 206.467C409.87 204.227 411.11 202.027 412.31 199.867C412.95 198.747 413.63 197.587 414.35 196.387C415.07 195.187 415.87 194.067 416.75 193.027C417.63 191.907 418.59 190.947 419.63 190.147C420.67 189.347 421.87 188.827 423.23 188.587C424.59 188.267 425.87 188.507 427.07 189.307C428.27 190.107 428.95 191.267 429.11 192.787V193.027ZM386.27 224.227C383.71 224.867 381.03 225.187 378.23 225.187C375.51 225.187 372.87 224.627 370.31 223.507C368.39 222.787 366.71 221.387 365.27 219.307C363.91 217.147 362.91 215.107 362.27 213.187C361.63 210.547 361.35 207.947 361.43 205.387C361.59 202.827 361.91 200.267 362.39 197.707C362.95 195.387 364.11 193.187 365.87 191.107C367.63 188.947 369.67 187.467 371.99 186.667C373.83 186.027 375.71 185.667 377.63 185.587C379.55 185.427 381.43 185.387 383.27 185.467C385.03 185.627 386.67 185.987 388.19 186.547C389.79 187.027 391.27 187.827 392.63 188.947C393.99 190.067 395.03 191.427 395.75 193.027C396.55 194.627 397.03 196.267 397.19 197.947C397.59 200.987 397.63 204.107 397.31 207.307C397.07 210.427 396.51 213.427 395.63 216.307C394.75 218.467 393.47 220.187 391.79 221.467C390.19 222.667 388.35 223.587 386.27 224.227ZM425.87 267.667C427.23 267.507 428.23 267.067 428.87 266.347C430.07 265.227 430.79 263.787 431.03 262.027C431.35 260.267 431.47 258.667 431.39 257.227C431.39 256.027 431.15 254.587 430.67 252.907C430.27 251.147 429.39 249.907 428.03 249.187C426.91 248.547 425.67 248.227 424.31 248.227C422.95 248.147 421.71 248.387 420.59 248.947C419.47 249.507 418.63 250.267 418.07 251.227C417.59 252.187 417.31 253.267 417.23 254.467C417.07 255.427 416.95 256.587 416.87 257.947C416.79 259.307 416.83 260.667 416.99 262.027C417.23 263.307 417.67 264.507 418.31 265.627C418.95 266.667 419.95 267.307 421.31 267.547C421.95 267.707 422.67 267.827 423.47 267.907C424.35 267.907 425.15 267.827 425.87 267.667ZM381.83 215.227C382.47 215.147 382.99 214.987 383.39 214.747C383.87 214.507 384.31 214.187 384.71 213.787C385.91 212.587 386.55 211.107 386.63 209.347C386.79 207.507 386.87 205.827 386.87 204.307C386.87 203.027 386.71 201.627 386.39 200.107C386.07 198.507 385.23 197.387 383.87 196.747C382.67 196.107 381.43 195.747 380.15 195.667C378.87 195.507 377.67 195.747 376.55 196.387C375.27 197.027 374.39 197.827 373.91 198.787C373.43 199.667 373.07 200.707 372.83 201.907C372.75 202.787 372.67 203.947 372.59 205.387C372.59 206.747 372.67 208.107 372.83 209.467C373.07 210.827 373.51 212.067 374.15 213.187C374.79 214.227 375.79 214.867 377.15 215.107C377.79 215.187 378.51 215.267 379.31 215.347C380.19 215.427 381.03 215.387 381.83 215.227Z" fill="white"/>
</svg>
